HIERARCHY
ROOT Hips
{
	OFFSET -0.001795 -0.223333 0.028219
	CHANNELS 6 Xposition Yposition Zposition Zrotation Yrotation Xrotation 
	JOINT LeftUpLeg
	{
		OFFSET 0.069520 -0.091406 -0.006815
		CHANNELS 3 Zrotation Yrotation Xrotation
		JOINT LeftLeg
		{
			OFFSET 0.034277 -0.375199 -0.004496
			CHANNELS 3 Zrotation Yrotation Xrotation
			JOINT LeftFoot
			{
				OFFSET -0.013596 -0.397961 -0.043693
				CHANNELS 3 Zrotation Yrotation Xrotation
				JOINT LeftToe
				{
					OFFSET 0.026358 -0.055791 0.119288
					CHANNELS 3 Zrotation Yrotation Xrotation
					End Site
					{
						OFFSET 0.000000 0.000000 0.000000
					}
				}
			}
		}
	}
	JOINT RightUpLeg
	{
		OFFSET -0.067670 -0.090522 -0.004320
		CHANNELS 3 Zrotation Yrotation Xrotation
		JOINT RightLeg
		{
			OFFSET -0.038290 -0.382569 -0.008850
			CHANNELS 3 Zrotation Yrotation Xrotation
			JOINT RightFoot
			{
				OFFSET 0.015774 -0.398415 -0.042312
				CHANNELS 3 Zrotation Yrotation Xrotation
				JOINT RightToe
				{
					OFFSET -0.025372 -0.048144 0.123348
					CHANNELS 3 Zrotation Yrotation Xrotation
					End Site
					{
						OFFSET 0.000000 0.000000 0.000000
					}
				}
			}
		}
	}
	JOINT Spine
	{
		OFFSET -0.002533 0.108963 -0.026696
		CHANNELS 3 Zrotation Yrotation Xrotation
		JOINT Spine1
		{
			OFFSET 0.005487 0.135180 0.001092
			CHANNELS 3 Zrotation Yrotation Xrotation
			JOINT Spine2
			{
				OFFSET 0.001457 0.052922 0.025425
				CHANNELS 3 Zrotation Yrotation Xrotation
				JOINT Neck
				{
					OFFSET -0.002778 0.213870 -0.042857
					CHANNELS 3 Zrotation Yrotation Xrotation
					JOINT Head
					{
						OFFSET 0.005152 0.064970 0.051349
						CHANNELS 3 Zrotation Yrotation Xrotation
						End Site
						{
							OFFSET 0.000000 0.000000 0.000000
						}
					}
				}
				JOINT LeftShoulder
				{
					OFFSET 0.078845 0.121749 -0.034090
					CHANNELS 3 Zrotation Yrotation Xrotation
					JOINT LeftArm
					{
						OFFSET 0.090977 0.030469 -0.008868
						CHANNELS 3 Zrotation Yrotation Xrotation
						JOINT LeftForeArm
						{
							OFFSET 0.259612 -0.012772 -0.027456
							CHANNELS 3 Zrotation Yrotation Xrotation
							JOINT LeftHand
							{
								OFFSET 0.249234 0.008986 -0.001171
								CHANNELS 3 Zrotation Yrotation Xrotation
								End Site
								{
									OFFSET 0.000000 0.000000 0.000000
								}
							}
						}
					}
				}
				JOINT RightShoulder
				{
					OFFSET -0.081759 0.118833 -0.038615
					CHANNELS 3 Zrotation Yrotation Xrotation
					JOINT RightArm
					{
						OFFSET -0.096012 0.032551 -0.009143
						CHANNELS 3 Zrotation Yrotation Xrotation
						JOINT RightForeArm
						{
							OFFSET -0.253742 -0.013329 -0.021401
							CHANNELS 3 Zrotation Yrotation Xrotation
							JOINT RightHand
							{
								OFFSET -0.255298 0.007772 -0.005559
								CHANNELS 3 Zrotation Yrotation Xrotation
								End Site
								{
									OFFSET 0.000000 0.000000 0.000000
								}
							}
						}
					}
				}
			}
		}
	}
}
MOTION
Frames: 16
Frame Time: 0.050000
0.060147 0.962006 -0.087848 -1.812603 -0.065113 -3.650068 10.705149 -0.057318 7.344979 -1.883575 0.295010 -4.956665 -0.202755 5.668194 16.202631 0.000000 0.000000 0.000000 -4.398674 -0.502269 9.101291 0.072314 -0.115483 -2.762579 -6.159019 -17.109124 21.027436 0.000000 0.000000 0.000000 -7.172710 -0.038611 -0.342464 8.213320 -1.840237 -19.986318 0.408215 -3.342918 30.568353 -1.512945 1.655161 -19.874142 0.000000 0.000000 0.000000 -0.580779 7.874819 -2.910578 -27.925115 -26.725880 0.507610 59.741145 -47.778474 -23.957679 0.000000 0.000000 0.000000 -8.240391 2.640844 1.244263 41.944823 11.402601 -2.697030 -72.697945 57.395005 -40.054262 0.000000 0.000000 0.000000 
0.059315 0.962601 -0.088023 -1.779997 0.888737 -3.148411 10.729447 -0.109780 6.759648 -1.806780 0.292605 -5.400151 -1.266044 4.164793 16.152616 0.000000 0.000000 0.000000 -4.148442 -0.542361 9.059215 0.051533 -0.134069 -3.276425 -6.660515 -17.746208 21.151014 0.000000 0.000000 0.000000 -7.290523 -0.030039 -0.205299 8.275729 -1.766393 -20.699815 0.580188 -3.685309 30.633645 -0.921996 1.337011 -21.143749 0.000000 0.000000 0.000000 -1.758443 8.537336 -3.249678 -31.396975 -29.426393 1.497060 65.660151 -42.620058 -23.523685 0.000000 0.000000 0.000000 -7.497218 2.002989 1.020693 45.452801 12.803184 -2.357328 -77.549680 52.321872 -38.535531 0.000000 0.000000 0.000000 
0.058926 0.963784 -0.087848 -1.538350 1.638146 -2.533921 10.441532 -0.131178 5.967478 -1.755246 0.291955 -5.781279 -1.782837 3.702164 16.824515 0.000000 0.000000 0.000000 -4.109733 -0.533611 8.715007 -0.104504 -0.138613 -3.698285 -6.692243 -17.693201 21.156774 0.000000 0.000000 0.000000 -7.229272 -0.020135 -0.240631 8.247175 -1.707061 -21.039492 0.458314 -3.833360 30.317626 -0.616186 1.226319 -22.056308 0.000000 0.000000 0.000000 -3.117082 8.286128 -3.267255 -36.414553 -32.025036 2.960950 71.560582 -36.695816 -21.910494 0.000000 0.000000 0.000000 -6.709580 1.264543 0.763595 50.040387 14.102936 -1.882595 -82.888161 46.420846 -36.057631 0.000000 0.000000 0.000000 
0.058794 0.964450 -0.087565 -1.486088 1.910500 -2.074653 10.490409 -0.154435 5.604580 -1.651603 0.293084 -6.276116 -2.470672 2.787339 17.069478 0.000000 0.000000 0.000000 -3.912532 -0.552056 8.696500 -0.302810 -0.152444 -4.375850 -6.489639 -17.358634 21.362251 0.000000 0.000000 0.000000 -6.996110 -0.012053 -0.353947 8.089989 -1.640634 -21.182552 0.608746 -3.805067 29.804996 -0.197696 1.058244 -23.293243 0.000000 0.000000 0.000000 -4.107391 8.111288 -3.292743 -40.499456 -33.501716 4.215097 74.631608 -32.750077 -20.140238 0.000000 0.000000 0.000000 -6.208247 1.301450 0.744095 53.013346 15.755642 -1.088170 -85.175814 40.969737 -32.035221 0.000000 0.000000 0.000000 
0.058643 0.964917 -0.087612 -1.281815 1.607986 -1.694199 10.199805 -0.132892 5.406177 -1.541244 0.286917 -6.162009 -2.600204 2.527867 17.038580 0.000000 0.000000 0.000000 -3.910898 -0.510434 8.268314 -0.426819 -0.139324 -4.281965 -6.485608 -17.382365 21.342955 0.000000 0.000000 0.000000 -6.795779 0.004279 -0.103069 7.750161 -1.466908 -22.031257 0.649152 -3.941566 30.184466 -0.172520 1.065702 -24.920544 0.000000 0.000000 0.000000 -4.378611 8.752416 -3.571856 -43.955101 -33.489035 4.902686 76.520020 -31.879772 -19.736098 0.000000 0.000000 0.000000 -6.105348 0.446134 0.510254 55.370475 17.648007 -0.248366 -84.569756 37.070799 -28.035272 0.000000 0.000000 0.000000 
0.058291 0.964448 -0.087872 -1.233897 1.494523 -1.184405 10.310018 -0.147294 5.021413 -1.429143 0.278842 -6.034667 -2.918330 2.004577 16.990614 0.000000 0.000000 0.000000 -3.847291 -0.481504 7.884281 -0.681404 -0.140911 -4.708264 -6.648190 -17.647597 21.729085 0.000000 0.000000 0.000000 -6.712882 0.006904 -0.643685 7.702882 -1.453947 -21.995456 0.415161 -4.266713 30.329473 -0.498469 1.232297 -25.704357 0.000000 0.000000 0.000000 -4.639677 9.297066 -3.811721 -46.000465 -33.242224 5.270596 75.776775 -31.927563 -19.168613 0.000000 0.000000 0.000000 -5.711732 0.194918 0.438691 56.718172 19.100478 0.431864 -84.486657 34.803046 -25.970256 0.000000 0.000000 0.000000 
0.057581 0.964010 -0.088255 -1.097334 1.078520 -0.996267 10.206552 -0.130177 4.963672 -1.180359 0.264444 -5.902905 -2.938064 1.919128 17.021527 0.000000 0.000000 0.000000 -3.872077 -0.446573 7.567359 -0.777234 -0.124738 -4.494627 -6.833542 -17.977898 21.819067 0.000000 0.000000 0.000000 -6.598160 0.016580 -0.503447 7.458722 -1.359451 -22.354237 0.345512 -4.572365 30.560237 -0.444809 1.124089 -26.274918 0.000000 0.000000 0.000000 -4.945984 9.932089 -4.088877 -47.003238 -32.036683 4.982018 74.179366 -31.435787 -17.879172 0.000000 0.000000 0.000000 -5.055942 -0.582367 0.194262 57.885168 20.666011 1.133860 -83.838082 33.700130 -24.787188 0.000000 0.000000 0.000000 
0.056580 0.963221 -0.088635 -1.064340 0.990678 -0.817888 10.241464 -0.133355 4.703301 -1.210034 0.259482 -5.598543 -2.737065 2.071185 16.653082 0.000000 0.000000 0.000000 -3.679118 -0.442219 7.323872 -1.068637 -0.104776 -4.494396 -6.972445 -18.183191 21.559972 0.000000 0.000000 0.000000 -6.564745 0.015254 -0.848173 7.487436 -1.369633 -22.320224 0.076852 -5.063689 30.916138 -0.672912 1.181597 -26.795963 0.000000 0.000000 0.000000 -5.234223 10.921034 -4.518993 -48.284136 -31.306599 4.951206 72.096959 -31.659363 -16.986230 0.000000 0.000000 0.000000 -4.548783 -1.519692 -0.106808 59.542987 22.411048 2.016675 -83.388796 33.171690 -24.147906 0.000000 0.000000 0.000000 
0.055384 0.962869 -0.089166 -1.187561 0.931043 -0.812807 10.404296 -0.141279 4.849927 -0.921726 0.243916 -5.646768 -2.947864 1.840097 16.915517 0.000000 0.000000 0.000000 -3.586051 -0.454153 7.393889 -0.944033 -0.120578 -4.641871 -6.940000 -18.145806 21.681116 0.000000 0.000000 0.000000 -6.492921 0.015453 -0.887222 7.454631 -1.356131 -22.381988 0.000450 -5.234377 31.106989 -0.754070 1.183813 -26.683791 0.000000 0.000000 0.000000 -5.927491 11.238628 -4.716918 -49.155178 -30.680122 4.806766 71.862840 -31.178180 -16.384334 0.000000 0.000000 0.000000 -3.962845 -1.982984 -0.298452 60.820060 22.935711 2.352220 -83.465788 33.245215 -24.156837 0.000000 0.000000 0.000000 
0.054082 0.962318 -0.089972 -1.248218 0.858165 -1.075842 10.628340 -0.144802 4.858335 -1.065438 0.242897 -5.235966 -2.868537 1.788234 16.466678 0.000000 0.000000 0.000000 -3.536063 -0.489031 7.806652 -0.762766 -0.135806 -4.706596 -7.043064 -18.306341 21.521534 0.000000 0.000000 0.000000 -6.731121 0.009862 -0.837109 7.510423 -1.399700 -22.107196 0.101336 -5.492441 31.222131 -0.982879 1.245217 -26.297392 0.000000 0.000000 0.000000 -6.596942 11.591916 -4.923830 -49.776135 -30.127603 4.661599 71.713254 -31.497865 -16.352561 0.000000 0.000000 0.000000 -3.626004 -2.449210 -0.467140 61.514214 23.022000 2.385182 -83.973301 34.444463 -25.488527 0.000000 0.000000 0.000000 
0.052762 0.961980 -0.091173 -1.323874 0.771139 -1.258812 10.805419 -0.146380 4.722501 -1.025334 0.229999 -4.792147 -2.925691 1.635722 16.316313 0.000000 0.000000 0.000000 -3.414524 -0.508538 7.931926 -0.697843 -0.135445 -4.606718 -7.317023 -18.720867 21.465483 0.000000 0.000000 0.000000 -6.884979 0.002120 -1.003380 7.268015 -1.365339 -21.807583 0.321975 -5.264114 31.477891 -1.234111 1.409781 -25.923865 0.000000 0.000000 0.000000 -6.883814 11.763674 -5.039020 -50.490447 -30.647563 4.992581 72.080887 -31.707106 -16.600462 0.000000 0.000000 0.000000 -3.756348 -2.499525 -0.478691 61.912999 22.522722 2.157340 -84.832913 37.078119 -28.074952 0.000000 0.000000 0.000000 
0.051383 0.961774 -0.092664 -1.340018 0.833495 -1.416958 10.868832 -0.147396 4.622813 -1.037131 0.219669 -4.335859 -2.770830 1.720833 15.875442 0.000000 0.000000 0.000000 -3.417099 -0.533755 8.245060 -0.646940 -0.140694 -4.647702 -7.454692 -18.919755 21.466471 0.000000 0.000000 0.000000 -7.249486 -0.007646 -1.147687 7.301015 -1.418014 -21.335247 0.530622 -5.108041 31.506306 -1.450127 1.559982 -25.534741 0.000000 0.000000 0.000000 -6.932420 11.921068 -5.126491 -51.480990 -30.980638 5.339123 72.399677 -32.494350 -17.246906 0.000000 0.000000 0.000000 -4.018179 -2.577118 -0.484716 61.363701 21.803505 1.749896 -86.013095 39.910028 -31.227797 0.000000 0.000000 0.000000 
0.049933 0.961431 -0.094368 -1.452074 0.903721 -1.716540 11.142303 -0.157030 4.603544 -1.058039 0.212784 -3.991759 -2.965299 1.389018 15.749713 0.000000 0.000000 0.000000 -3.145959 -0.590877 8.622356 -0.757657 -0.134376 -4.672949 -7.450486 -18.908022 21.296722 0.000000 0.000000 0.000000 -7.403599 -0.018395 -1.208973 7.070592 -1.404366 -20.803239 0.701030 -4.943022 31.449040 -1.798836 1.798363 -25.151148 0.000000 0.000000 0.000000 -7.047548 11.873044 -5.128988 -51.729335 -31.658265 5.698141 72.699080 -32.292498 -17.283718 0.000000 0.000000 0.000000 -4.220674 -1.991632 -0.290257 60.503605 21.102678 1.347901 -87.407480 41.899357 -33.859925 0.000000 0.000000 0.000000 
0.048491 0.961547 -0.096139 -1.522925 0.767316 -1.957550 11.273075 -0.151927 4.572069 -1.149751 0.211437 -3.627075 -2.987256 1.198160 15.381502 0.000000 0.000000 0.000000 -3.255997 -0.608482 9.008015 -0.451435 -0.161095 -4.813028 -7.456988 -18.937404 21.419684 0.000000 0.000000 0.000000 -7.485320 -0.016045 -0.871658 6.879248 -1.366359 -20.681314 0.890723 -4.506497 31.480586 -1.709963 1.786791 -24.465170 0.000000 0.000000 0.000000 -7.203418 11.722948 -5.100025 -51.948286 -31.990266 5.855646 72.770444 -32.385618 -17.490020 0.000000 0.000000 0.000000 -4.399420 -1.706168 -0.202444 59.295896 20.493985 1.002583 -87.178647 42.675226 -34.423353 0.000000 0.000000 0.000000 
0.047130 0.961459 -0.097864 -1.631820 0.739705 -2.202176 11.323918 -0.149012 4.739160 -1.065117 0.204549 -3.604440 -3.253040 0.804220 15.432641 0.000000 0.000000 0.000000 -3.088129 -0.659986 9.453504 -0.391643 -0.180304 -5.164819 -7.413568 -18.883789 21.630475 0.000000 0.000000 0.000000 -7.464478 -0.018664 -0.740109 6.716304 -1.353378 -20.335836 0.911589 -4.127048 31.329507 -1.797917 1.890949 -23.849791 0.000000 0.000000 0.000000 -7.504997 11.532144 -5.071594 -51.925335 -31.984348 5.798089 72.843144 -32.691963 -17.876860 0.000000 0.000000 0.000000 -4.261726 -1.289754 -0.101044 58.701482 19.671932 0.625073 -87.315571 43.219855 -34.916452 0.000000 0.000000 0.000000 
0.045984 0.961305 -0.099406 -1.666439 0.320262 -2.326233 11.372063 -0.133839 4.968173 -1.031937 0.204870 -3.682018 -3.143269 0.941877 15.493978 0.000000 0.000000 0.000000 -3.123803 -0.673313 9.797221 -0.131158 -0.202712 -5.319912 -7.248894 -18.691329 21.612973 0.000000 0.000000 0.000000 -7.392207 -0.016978 -0.687717 6.463089 -1.314184 -20.042449 0.874851 -3.384545 31.202431 -1.402784 1.700039 -22.810769 0.000000 0.000000 0.000000 -7.492734 11.066449 -4.892440 -52.137826 -31.708946 5.663101 73.224372 -32.878547 -18.305792 0.000000 0.000000 0.000000 -3.951214 -1.036112 -0.065914 58.603357 18.857102 0.311469 -87.595894 43.529408 -35.156289 0.000000 0.000000 0.000000 
